<svg width="50" height="50" viewBox="0 0 50 50" fill="none" xmlns="http://www.w3.org/2000/svg">
<path d="M36 47H14C10.6863 47 8 44.3137 8 41V23.5C8 15.2157 14.7157 8.5 23 8.5H27C35.2843 8.5 42 15.2157 42 23.5V41C42 44.3137 39.3137 47 36 47Z" stroke="#F20F38" stroke-width="2.5"/>
<path d="M25 3C21.7756 3 20.6048 5.82389 20.2002 7.42479C20.0561 7.99489 20.507 8.5 21.095 8.5H28.905C29.493 8.5 29.9439 7.99489 29.7998 7.42479C29.3952 5.82389 28.2244 3 25 3Z" stroke="#F20F38" stroke-width="2.5"/>
<path d="M14 32V30C14 28.8954 14.8954 28 16 28H34C35.1046 28 36 28.8954 36 30V32M14 32V40C14 41.1046 14.8954 42 16 42H34C35.1046 42 36 41.1046 36 40V32M14 32H36" stroke="#F20F38" stroke-width="2.5"/>
<path d="M29 38H33M23 38H27M17 38H21" stroke="#F20F38" stroke-width="2.5"/>
<path d="M4 33V31.5C4 29.8431 5.34315 28.5 7 28.5C7.55228 28.5 8 28.9477 8 29.5V33V42.5556C8 42.801 7.80102 43 7.55556 43C5.59188 43 4 41.4081 4 39.4444V33Z" stroke="#F20F38" stroke-width="2.5"/>
<path d="M46 33.3448V32C46 30.3431 44.6569 29 43 29C42.4477 29 42 29.4477 42 30V33.3448V42.5556C42 42.801 42.199 43 42.4444 43C44.4081 43 46 41.4081 46 39.4444V33.3448Z" stroke="#F20F38" stroke-width="2.5"/>
<path d="M14 18C19 10.5 33 12.5 36 18" stroke="#F20F38" stroke-width="2.5" stroke-linecap="round"/>
<path fill-rule="evenodd" clip-rule="evenodd" d="M19.1722 8.0159C19.1614 7.80935 19.1817 7.59256 19.2383 7.36849C19.462 6.48346 19.9149 5.17579 20.8278 4.06735C21.7756 2.91662 23.2112 2 25.25 2C27.2888 2 28.7244 2.91662 29.6722 4.06735C30.5852 5.17579 31.038 6.48346 31.2617 7.36849C31.3183 7.59256 31.3386 7.80935 31.3278 8.0159C38.3288 9.82515 43.5 16.1837 43.5 23.75V28.0072C45.7308 28.1366 47.5 29.9867 47.5 32.25V39.6944C47.5 42.3358 45.3691 44.4794 42.7326 44.4999C41.541 46.8721 39.0856 48.5 36.25 48.5H14.25C11.4144 48.5 8.95899 46.8721 7.76742 44.4999C5.13094 44.4794 3 42.3358 3 39.6944V31.75C3 29.4867 4.76916 27.6366 7 27.5072V23.75C7 16.1837 12.1712 9.82515 19.1722 8.0159Z" stroke="black"/>
</svg>
