<svg width="50" height="50" viewBox="0 0 50 50" fill="none" xmlns="http://www.w3.org/2000/svg">
<path d="M36 47H14C10.6863 47 8 44.3137 8 41V23.5C8 15.2157 14.7157 8.5 23 8.5H27C35.2843 8.5 42 15.2157 42 23.5V41C42 44.3137 39.3137 47 36 47Z" stroke="#010101" stroke-width="2.5"/>
<path d="M25 3C21.7756 3 20.6048 5.82389 20.2002 7.42479C20.0561 7.99489 20.507 8.5 21.095 8.5H28.905C29.493 8.5 29.9439 7.99489 29.7998 7.42479C29.3952 5.82389 28.2244 3 25 3Z" stroke="#010101" stroke-width="2.5"/>
<path d="M14 32V30C14 28.8954 14.8954 28 16 28H34C35.1046 28 36 28.8954 36 30V32M14 32V40C14 41.1046 14.8954 42 16 42H34C35.1046 42 36 41.1046 36 40V32M14 32H36" stroke="black" stroke-opacity="0.5" stroke-width="2.5"/>
<path d="M29 38H33M23 38H27M17 38H21" stroke="black" stroke-opacity="0.5" stroke-width="2.5"/>
<path d="M4 33V31.5C4 29.8431 5.34315 28.5 7 28.5C7.55228 28.5 8 28.9477 8 29.5V33V42.5556C8 42.801 7.80102 43 7.55556 43C5.59188 43 4 41.4081 4 39.4444V33Z" stroke="#010101" stroke-width="2.5"/>
<path d="M46 33.3448V32C46 30.3431 44.6569 29 43 29C42.4477 29 42 29.4477 42 30V33.3448V42.5556C42 42.801 42.199 43 42.4444 43C44.4081 43 46 41.4081 46 39.4444V33.3448Z" stroke="#010101" stroke-width="2.5"/>
<path d="M14 18C19 10.5 33 12.5 36 18" stroke="black" stroke-opacity="0.5" stroke-width="2.5" stroke-linecap="round"/>
<mask id="path-8-outside-1_209_144" maskUnits="userSpaceOnUse" x="12.9998" y="11" width="24" height="33" fill="black">
<rect fill="white" x="12.9998" y="11" width="24" height="33"/>
<path fill-rule="evenodd" clip-rule="evenodd" d="M27.9999 17C27.9999 15.3431 26.6568 14 24.9999 14C23.343 14 21.9999 15.3431 21.9999 17V29.1995L21.3752 28.3898C20.3632 27.0779 18.4794 26.8349 17.1675 27.8469C15.8556 28.8589 15.6125 30.7428 16.6246 32.0546L22.6246 39.8324C23.1926 40.5687 24.0699 41 24.9999 41C25.9299 41 26.8072 40.5687 27.3752 39.8324L33.3752 32.0546C34.3873 30.7428 34.1442 28.8589 32.8323 27.8469C31.5204 26.8349 29.6366 27.0779 28.6246 28.3898L27.9999 29.1995V17Z"/>
</mask>
<path fill-rule="evenodd" clip-rule="evenodd" d="M27.9999 17C27.9999 15.3431 26.6568 14 24.9999 14C23.343 14 21.9999 15.3431 21.9999 17V29.1995L21.3752 28.3898C20.3632 27.0779 18.4794 26.8349 17.1675 27.8469C15.8556 28.8589 15.6125 30.7428 16.6246 32.0546L22.6246 39.8324C23.1926 40.5687 24.0699 41 24.9999 41C25.9299 41 26.8072 40.5687 27.3752 39.8324L33.3752 32.0546C34.3873 30.7428 34.1442 28.8589 32.8323 27.8469C31.5204 26.8349 29.6366 27.0779 28.6246 28.3898L27.9999 29.1995V17Z" fill="#F2F2F2"/>
<path d="M21.9999 29.1995L20.0204 30.7266L24.4999 36.5333V29.1995H21.9999ZM21.3752 28.3898L19.3958 29.9168L19.3958 29.9168L21.3752 28.3898ZM16.6246 32.0546L14.6451 33.5816L14.6451 33.5816L16.6246 32.0546ZM22.6246 39.8324L24.604 38.3054L24.604 38.3054L22.6246 39.8324ZM27.3752 39.8324L29.3547 41.3594L29.3547 41.3594L27.3752 39.8324ZM33.3752 32.0546L35.3547 33.5816L35.3547 33.5816L33.3752 32.0546ZM32.8323 27.8469L34.3593 25.8674L34.3593 25.8674L32.8323 27.8469ZM28.6246 28.3898L26.6451 26.8628L26.6451 26.8628L28.6246 28.3898ZM27.9999 29.1995H25.4999V36.5333L29.9794 30.7266L27.9999 29.1995ZM24.9999 16.5C25.276 16.5 25.4999 16.7239 25.4999 17H30.4999C30.4999 13.9624 28.0375 11.5 24.9999 11.5V16.5ZM24.4999 17C24.4999 16.7239 24.7238 16.5 24.9999 16.5V11.5C21.9623 11.5 19.4999 13.9624 19.4999 17H24.4999ZM24.4999 29.1995V17H19.4999V29.1995H24.4999ZM19.3958 29.9168L20.0204 30.7266L23.9794 27.6725L23.3547 26.8628L19.3958 29.9168ZM18.6945 29.8263C18.9131 29.6577 19.2271 29.6982 19.3958 29.9168L23.3547 26.8628C21.4993 24.4577 18.0456 24.0121 15.6405 25.8674L18.6945 29.8263ZM18.604 30.5276C18.4353 30.309 18.4759 29.995 18.6945 29.8263L15.6405 25.8674C13.2354 27.7228 12.7897 31.1765 14.6451 33.5816L18.604 30.5276ZM24.604 38.3054L18.604 30.5276L14.6451 33.5816L20.6451 41.3594L24.604 38.3054ZM24.9999 38.5C24.8449 38.5 24.6987 38.4281 24.604 38.3054L20.6451 41.3594C21.6865 42.7093 23.295 43.5 24.9999 43.5V38.5ZM25.3958 38.3054C25.3011 38.4281 25.1549 38.5 24.9999 38.5V43.5C26.7048 43.5 28.3133 42.7093 29.3547 41.3594L25.3958 38.3054ZM31.3958 30.5276L25.3958 38.3054L29.3547 41.3594L35.3547 33.5816L31.3958 30.5276ZM31.3053 29.8263C31.5239 29.995 31.5645 30.309 31.3958 30.5276L35.3547 33.5816C37.2101 31.1765 36.7644 27.7228 34.3593 25.8674L31.3053 29.8263ZM30.604 29.9168C30.7727 29.6982 31.0867 29.6577 31.3053 29.8263L34.3593 25.8674C31.9542 24.0121 28.5005 24.4577 26.6451 26.8628L30.604 29.9168ZM29.9794 30.7266L30.604 29.9168L26.6451 26.8628L26.0204 27.6725L29.9794 30.7266ZM25.4999 17V29.1995H30.4999V17H25.4999Z" fill="black" mask="url(#path-8-outside-1_209_144)"/>
<path fill-rule="evenodd" clip-rule="evenodd" d="M19.1722 8.0159C19.1614 7.80935 19.1817 7.59256 19.2383 7.36849C19.462 6.48346 19.9149 5.17579 20.8278 4.06735C21.7756 2.91662 23.2112 2 25.25 2C27.2888 2 28.7244 2.91662 29.6722 4.06735C30.5852 5.17579 31.038 6.48346 31.2617 7.36849C31.3183 7.59256 31.3386 7.80935 31.3278 8.0159C38.3288 9.82515 43.5 16.1837 43.5 23.75V28.0072C45.7308 28.1366 47.5 29.9867 47.5 32.25V39.6944C47.5 42.3358 45.3691 44.4794 42.7326 44.4999C41.541 46.8721 39.0856 48.5 36.25 48.5H14.25C11.4144 48.5 8.95899 46.8721 7.76742 44.4999C5.13094 44.4794 3 42.3358 3 39.6944V31.75C3 29.4867 4.76916 27.6366 7 27.5072V23.75C7 16.1837 12.1712 9.82515 19.1722 8.0159Z" stroke="black"/>
</svg>
