<svg width="60" height="60" viewBox="0 0 60 60" fill="none" xmlns="http://www.w3.org/2000/svg">
<path d="M30 22.9835L16.9518 5.95847C16.0056 4.7239 14.5387 4 12.9833 4H12.2278C8.03933 4 5.7072 8.84133 8.31789 12.1166L22.076 29.3767C22.3667 29.7414 22.3667 30.2586 22.076 30.6233L8.31789 47.8834C5.7072 51.1587 8.03933 56 12.2278 56H13.0003C14.5397 56 15.9932 55.2909 16.9408 54.0778L30 37.3584L43.0592 54.0778C44.0068 55.291 45.4603 56 46.9997 56H47.8661C52.0268 56 54.3673 51.2146 51.8128 47.9303L38.3446 30.6139C38.0637 30.2528 38.0637 29.7472 38.3446 29.3861L51.8128 12.0697C54.3673 8.78541 52.0268 4 47.8661 4H47.0167C45.4613 4 43.9944 4.7239 43.0482 5.95847L30 22.9835Z" fill="#F20F38" stroke="black" stroke-width="4"/>
</svg>
