<svg width="50" height="50" viewBox="0 0 50 50" fill="none" xmlns="http://www.w3.org/2000/svg">
<path d="M16.8125 4.75H17.0009L17.1424 4.62572L19.5634 2.5H29.4366L31.8576 4.62572L31.9991 4.75H32.1875H42.4375C43.1106 4.75 43.6259 4.94634 43.9654 5.24447C44.2991 5.53745 44.5 5.95979 44.5 6.5C44.5 7.04021 44.2991 7.46255 43.9654 7.75553C43.6259 8.05366 43.1106 8.25 42.4375 8.25H37.3125H11.6875H6.5625C5.88939 8.25 5.37413 8.05366 5.03459 7.75553C4.70092 7.46255 4.5 7.04021 4.5 6.5C4.5 5.95979 4.70092 5.53745 5.03459 5.24447C5.37413 4.94634 5.88939 4.75 6.5625 4.75H16.8125ZM7.0625 42.5V13.75H41.9375V42.5C41.9375 44.6397 39.9182 46.5 37.3125 46.5H11.6875C9.08182 46.5 7.0625 44.6397 7.0625 42.5ZM19.875 20C19.875 19.1902 19.5634 18.4876 19.0002 17.993C18.4429 17.5037 17.6769 17.25 16.8125 17.25C15.9481 17.25 15.1821 17.5037 14.6248 17.993C14.0616 18.4876 13.75 19.1902 13.75 20V40.25C13.75 41.0598 14.0616 41.7624 14.6248 42.257C15.1821 42.7463 15.9481 43 16.8125 43C17.6769 43 18.4429 42.7463 19.0002 42.257C19.5634 41.7624 19.875 41.0598 19.875 40.25V20ZM35.25 20C35.25 19.1902 34.9384 18.4876 34.3752 17.993C33.8179 17.5037 33.0519 17.25 32.1875 17.25C31.3231 17.25 30.5571 17.5037 29.9998 17.993C29.4366 18.4876 29.125 19.1902 29.125 20V40.25C29.125 41.0598 29.4366 41.7624 29.9998 42.257C30.5571 42.7463 31.3231 43 32.1875 43C33.0519 43 33.8179 42.7463 34.3752 42.257C34.9384 41.7624 35.25 41.0598 35.25 40.25V20Z" fill="#F20F38" stroke="black"/>
</svg>
