<svg width="50" height="50" viewBox="0 0 50 50" fill="none" xmlns="http://www.w3.org/2000/svg">
<path fill-rule="evenodd" clip-rule="evenodd" d="M1.25 9C1.25 7.48122 2.48122 6.25 4 6.25H46C47.5188 6.25 48.75 7.48122 48.75 9V41C48.75 42.5188 47.5188 43.75 46 43.75H4C2.48121 43.75 1.25 42.5188 1.25 41V9ZM4.75 9.75V12.25H30.179C30.9577 12.25 31.7283 12.4082 32.444 12.7149L34.4347 13.5681C34.7148 13.6881 35.0163 13.75 35.321 13.75H45.25V9.75H4.75ZM45.25 17.25H35.321C34.5423 17.25 33.7717 17.0918 33.056 16.7851L31.0653 15.9319C30.7852 15.8119 30.4837 15.75 30.179 15.75H4.75V40.25H45.25V17.25Z" fill="#F20F38" stroke="black" stroke-linejoin="round"/>
<path fill-rule="evenodd" clip-rule="evenodd" d="M19.4371 22.3288C20.084 22.8463 20.1889 23.7902 19.6714 24.4371L18.5101 25.8887L19.5607 26.9394C20.1465 27.5252 20.1465 28.4749 19.5607 29.0607C18.9749 29.6465 18.0252 29.6465 17.4394 29.0607L16.3887 28.0101L14.9371 29.1714C14.2902 29.6889 13.3463 29.584 12.8288 28.9371C12.3112 28.2902 12.4161 27.3463 13.063 26.8288L14.2544 25.8757L12.9394 24.5607C12.3536 23.9749 12.3536 23.0252 12.9394 22.4394C13.5252 21.8536 14.4749 21.8536 15.0607 22.4394L16.3757 23.7544L17.3288 22.563C17.8463 21.9161 18.7902 21.8112 19.4371 22.3288Z" fill="#F20F38" stroke="black" stroke-linecap="round" stroke-linejoin="round"/>
<path fill-rule="evenodd" clip-rule="evenodd" d="M36.4371 22.3288C37.084 22.8463 37.1889 23.7902 36.6714 24.4371L35.5101 25.8887L36.5607 26.9394C37.1465 27.5252 37.1465 28.4749 36.5607 29.0607C35.9749 29.6465 35.0252 29.6465 34.4394 29.0607L33.3887 28.0101L31.9371 29.1714C31.2902 29.6889 30.3463 29.584 29.8288 28.9371C29.3112 28.2902 29.4161 27.3463 30.063 26.8288L31.2544 25.8757L29.9394 24.5607C29.3536 23.9749 29.3536 23.0252 29.9394 22.4394C30.5252 21.8536 31.4749 21.8536 32.0607 22.4394L33.3757 23.7544L34.3288 22.563C34.8463 21.9161 35.7902 21.8112 36.4371 22.3288Z" fill="#F20F38" stroke="black" stroke-linecap="round" stroke-linejoin="round"/>
<path fill-rule="evenodd" clip-rule="evenodd" d="M16.6584 36.6709C17.0289 37.4118 17.9299 37.7122 18.6709 37.3417L22.0001 35.6771L24.3293 36.8417C24.7516 37.0528 25.2486 37.0528 25.6709 36.8417L28.0001 35.6771L31.3293 37.3417C32.0702 37.7122 32.9712 37.4118 33.3417 36.6709C33.7122 35.9299 33.4119 35.0289 32.6709 34.6584L28.6709 32.6584C28.2486 32.4473 27.7516 32.4473 27.3293 32.6584L25.0001 33.823L22.6709 32.6584C22.2486 32.4473 21.7516 32.4473 21.3293 32.6584L17.3293 34.6584C16.5883 35.0289 16.288 35.9299 16.6584 36.6709Z" fill="#F20F38" stroke="black" stroke-linecap="round" stroke-linejoin="round"/>
</svg>
