<svg width="50" height="50" viewBox="0 0 50 50" fill="none" xmlns="http://www.w3.org/2000/svg">
<path d="M9.09638 5.82888C3.17405 10.7092 1.33608 19.0934 4.60357 26.7267C5.93099 29.9803 23.698 48 25.536 48C27.3739 48 45.1409 29.9803 46.4684 26.7267C47.2852 24.7245 48 21.2207 48 18.9683C47.8979 7.08025 37.2785 -0.678231 28.5992 4.82779C25.8423 6.57971 25.2296 6.57971 22.4727 4.82779C18.1841 2.07478 13.0786 2.45019 9.09638 5.82888ZM23.4938 9.83326C25.4339 11.9606 25.6381 11.9606 27.6803 9.70813C29.2119 8.08135 31.3562 7.33053 34.93 7.33053C39.2186 7.33053 40.3418 7.83107 42.4861 10.8344C45.4473 15.089 45.7536 22.3469 43.0988 26.2262C40.546 30.1054 27.0676 42.9945 25.6381 42.9945C24.3107 42.9945 10.7301 30.3557 7.97318 26.4765C4.9099 22.3469 5.52256 14.7136 9.19849 10.2087C12.0575 6.82998 12.8744 6.45457 16.9588 7.08025C19.5115 7.33053 22.4727 8.70703 23.4938 9.83326Z" fill="black"/>
</svg>
