<svg width="48" height="48" viewBox="0 0 48 48" fill="none" xmlns="http://www.w3.org/2000/svg">
<circle cx="24" cy="14" r="8.5" fill="#F20F38" stroke="black" stroke-width="3"/>
<path d="M9.92305 35.9007C10.8885 38.797 14.3494 42.2539 24.0187 42.5C32.893 42.4955 36.7125 39.2872 38.0735 36.3133C38.7801 34.7693 38.8922 33.1692 38.6302 31.8461C38.3833 30.5996 37.8461 29.7658 37.3511 29.3753C37.0839 29.3125 36.6194 29.2357 35.9315 29.1605C35.0981 29.0695 34.0443 28.991 32.8338 28.927C30.4152 28.799 27.4257 28.7313 24.433 28.7276C21.4399 28.7238 18.4627 28.7842 16.068 28.9102C14.8692 28.9732 13.832 29.052 13.019 29.145C12.1553 29.2438 11.6862 29.3446 11.5266 29.4045C11.1188 29.5574 10.4079 30.2296 9.94838 31.5541C9.51456 32.8046 9.4128 34.3699 9.92305 35.9007Z" fill="#F20F38" stroke="black" stroke-width="3"/>
</svg>
