<svg width="50" height="50" viewBox="0 0 50 50" fill="none" xmlns="http://www.w3.org/2000/svg">
<path d="M11.1491 44.5H38.8509C44.7562 44.5 48.423 38.0827 45.4447 32.9866L31.5938 9.28621C28.6435 4.23794 21.3565 4.23793 18.4062 9.2862L4.55529 32.9866C1.57705 38.0827 5.24384 44.5 11.1491 44.5Z" fill="#F20F38" stroke="black" stroke-width="3"/>
<path d="M22 19C22 17.3431 23.3431 16 25 16V16C26.6569 16 28 17.3431 28 19V27C28 28.6569 26.6569 30 25 30V30C23.3431 30 22 28.6569 22 27V19Z" fill="black"/>
<circle cx="25" cy="35" r="3" fill="black"/>
</svg>
